<?xml version="1.0" standalone="no"?>
<!DOCTYPE svg PUBLIC "-//W3C//DTD SVG 20010904//EN"
 "http://www.w3.org/TR/2001/REC-SVG-20010904/DTD/svg10.dtd">
<svg version="1.0" xmlns="http://www.w3.org/2000/svg"
 width="860.000000pt" height="728.000000pt" viewBox="0 0 860.000000 728.000000"
 preserveAspectRatio="xMidYMid meet">

<g transform="translate(0.000000,728.000000) scale(0.100000,-0.100000)"
fill="#f3f3f3" stroke="none">
<path d="M1130 6870 c-527 -51 -830 -214 -830 -446 0 -66 36 -165 89 -246 92
-142 1018 -1132 1746 -1868 414 -419 449 -457 588 -642 157 -208 240 -337 259
-400 6 -21 16 -38 21 -38 12 0 114 76 262 194 110 87 253 184 329 223 27 14
147 60 265 103 119 43 242 89 275 104 73 32 178 107 205 145 l20 28 -79 7
c-66 5 -183 33 -275 64 -24 8 59 20 153 21 34 1 62 4 62 7 0 3 -42 56 -94 118
-287 342 -434 570 -1271 1981 -118 199 -224 365 -244 385 -108 104 -382 194
-733 240 -176 24 -592 35 -748 20z"/>
<path d="M6585 6799 c-316 -27 -561 -93 -657 -178 -20 -18 -52 -60 -71 -94
-67 -119 -306 -575 -497 -947 -442 -859 -462 -896 -703 -1261 -307 -466 -323
-480 -717 -624 -354 -130 -419 -163 -641 -336 -79 -61 -213 -163 -297 -226
-144 -108 -201 -164 -224 -223 -5 -14 -16 -59 -25 -100 -19 -95 -28 -112 -116
-220 -67 -82 -128 -172 -142 -211 -4 -10 5 -28 25 -47 42 -42 116 -58 193 -42
101 21 182 70 357 221 159 136 328 269 389 305 26 15 29 23 35 91 13 140 71
319 127 393 9 12 10 12 4 -5 -35 -107 -59 -215 -79 -370 -22 -159 -32 -205
-77 -337 -51 -147 -53 -157 -51 -250 2 -109 26 -379 48 -538 19 -140 49 -200
158 -311 l84 -87 22 80 c36 132 59 270 65 379 3 56 7 104 9 107 3 2 12 -11 22
-29 23 -46 15 -160 -32 -437 l-37 -220 27 -93 c14 -52 29 -116 32 -144 8 -63
27 -93 69 -111 44 -18 95 -18 142 1 l38 15 1 83 c4 198 121 438 294 602 l53
50 -23 -40 c-12 -22 -56 -97 -97 -167 -123 -213 -163 -321 -163 -449 0 -130
43 -213 134 -255 59 -28 133 -31 176 -9 33 17 58 60 99 173 26 73 27 79 14
122 -21 66 -21 175 0 237 23 66 93 145 148 167 23 10 38 20 33 25 -5 4 -47 34
-93 67 -103 73 -180 155 -218 231 -25 53 -28 68 -28 163 0 91 3 111 24 150 34
65 86 125 137 161 41 28 44 33 31 47 -67 76 -82 212 -35 313 46 99 139 168
248 184 58 8 156 -9 226 -40 l54 -24 0 43 c0 205 193 330 458 296 53 -7 131
-22 174 -34 l76 -23 7 36 c12 67 87 286 121 354 113 226 404 601 1414 1822
636 768 807 980 914 1130 71 98 73 127 16 188 -109 119 -453 208 -949 247
-156 12 -580 11 -726 -1z"/>
<path d="M5870 3031 c0 -5 -2 -16 -5 -23 -4 -9 24 -37 75 -77 98 -78 107 -90
42 -57 -229 116 -477 175 -614 147 -110 -23 -196 -108 -213 -214 -9 -49 22
-113 73 -148 50 -36 714 -320 762 -326 90 -12 209 52 265 142 27 43 30 57 29
124 -1 146 -64 234 -258 362 -109 73 -156 93 -156 70z"/>
<path d="M3375 2688 c-44 -33 -127 -102 -185 -152 -141 -123 -193 -165 -268
-215 -35 -23 -67 -52 -71 -64 -16 -41 -41 -210 -41 -271 1 -75 13 -133 45
-211 35 -87 52 -161 74 -335 21 -153 49 -278 75 -329 19 -36 53 -65 111 -94
66 -33 96 -67 138 -157 45 -96 94 -151 159 -184 136 -68 278 0 332 157 34 101
11 291 -54 433 -88 194 -215 273 -422 261 -54 -3 -98 -3 -98 -1 0 3 30 19 66
36 46 21 87 32 134 36 l67 4 -18 58 c-21 67 -79 571 -79 686 0 102 16 163 79
297 27 59 47 107 43 107 -4 0 -43 -28 -87 -62z"/>
<path d="M4810 2731 c-115 -38 -189 -137 -190 -255 0 -126 60 -191 244 -262
286 -111 461 -215 804 -482 l174 -134 45 11 c122 31 226 120 252 217 13 47 -1
175 -25 232 -18 45 -144 174 -218 224 -73 50 -212 117 -342 163 -54 20 -211
93 -349 161 -222 112 -257 126 -310 130 -33 2 -71 0 -85 -5z"/>
<path d="M4615 2192 c-165 -77 -197 -294 -68 -463 62 -82 266 -226 360 -254
100 -30 214 -137 416 -387 127 -157 150 -173 237 -165 82 7 144 44 231 134 91
96 124 157 123 233 0 114 -52 187 -263 368 -233 199 -479 350 -811 497 -126
55 -170 63 -225 37z"/>
<path d="M4732 1403 c-113 -55 -168 -200 -127 -338 32 -113 75 -184 236 -397
109 -143 137 -161 265 -166 77 -4 98 -1 142 18 78 34 192 166 192 224 0 69
-74 190 -220 361 -220 258 -292 315 -399 315 -31 0 -71 -8 -89 -17z"/>
<path d="M4562 835 c-36 -106 -40 -159 -16 -229 44 -128 174 -164 269 -73 l34
32 -89 112 c-48 61 -103 143 -122 182 -18 38 -35 70 -38 70 -3 1 -20 -42 -38
-94z"/>
</g>
</svg>
